<svg id="Слой_1" data-name="Слой 1" xmlns="http://www.w3.org/2000/svg" viewBox="0 0 56.69 127.56"><defs><style>.cls-1{fill:#ebc651}</style></defs><path class="cls-1" d="M49 8H0V0h49zm0 119.56H0v-8h49z"/><path class="cls-1" d="M48.69 127.56V0h8v127.56zM20 68.15v18.6c0 .68.15.9.82.86 1.07-.06 2.14 0 3.21 0 .41 0 .56.12.55.56v7c0 .42-.1.58-.53.58H1.03c-.53 0-.75-.1-.74-.72v-6.72c0-.58.2-.7.7-.69h4.25c.47 0 .65-.12.65-.65V57.9c0-.5-.13-.67-.62-.66H1.18c-.46 0-.58-.13-.58-.6v-7.39c0-.44.13-.55.55-.55h18.28c.66 0 .58.36.58.78zm-7.33-37.46a7 7 0 0 1 5.93 2.74c2.71 3.63 1.53 9.57-3.6 10.94a8 8 0 0 1-7.17-1.06c-2.42-1.76-3.32-4.75-2.31-8a6.68 6.68 0 0 1 5.93-4.52c.42-.07.82-.08 1.22-.1z"/></svg>