<svg id="Слой_1" data-name="Слой 1" xmlns="http://www.w3.org/2000/svg" viewBox="0 0 170.08 170.08"><defs><style>.cls-1{fill:none;stroke:#19283a;stroke-miterlimit:10;stroke-width:3px}</style></defs><path class="cls-1" d="M92.92 10.43q-28.48 3.8-57 7.55c-1.32.18-1.67.51-1.49 1.91 1.91 13.91 3.73 27.84 5.62 41.76.17 1.3.07 1.83-1.47 2.05-2.72.38-5.09-.49-7.51-1.39-3-1.12-5.92-2.47-9.21-2.42C13.21 60 3.33 65.84 2.77 78 2.43 85.34 4.82 91.7 11 96.15c5.22 3.73 14.63 5 21.25.09 1.49-1.11 3.06-2.12 4.51-3.27 1.87-1.47 4.08-1.9 6.33-2.29.55-.09.77 0 .83.55s.12.82.17 1.23q2.74 20.66 5.49 41.31c.27 2 .27 2 2.38 1.76q20.73-2.76 41.47-5.55c1.36-.18 1.72 0 1.92 1.53.37 2.9-.59 5.4-1.56 8a27.71 27.71 0 0 0-2.15 7.49 19 19 0 0 0 18.23 20.31c6.68.16 12.51-1.82 17-7s6-15.16 1.86-21.3c-1.34-2-2.73-4-4.16-5.95a13.9 13.9 0 0 1-2.11-5.43c-.26-1.25.18-1.55 1.34-1.7l30.26-4c4.05-.53 8.09-1.11 12.13-1.59 1-.12 1.25-.46 1.11-1.47q-2.9-21.42-5.7-42.85c-.13-1-.49-1.15-1.47-1.07-2.88.21-5.13 1.7-7.35 3.33-2.5 1.83-4.91 3.79-7.95 4.7a18.85 18.85 0 0 1-23.31-12.15c-2-6.19-1.7-12.2 1.77-17.88 3.74-6.13 13.47-10.71 21.57-7.56 2 .77 4 1.42 5.95 2.21s4.26.5 6.42.37c.54 0 .56-.32.52-.71s-.08-.61-.12-.92q-2.81-21-5.57-42.09c-.18-1.31-.48-1.66-1.88-1.48q-28.6 3.89-57.26 7.66z"/></svg>