<svg id="Слой_1" data-name="Слой 1" xmlns="http://www.w3.org/2000/svg" viewBox="0 0 56.69 127.56"><defs><style>.cls-1{fill:#ebc651;}</style></defs><path class="cls-1" d="M49,8H0V0H49Z"/><path class="cls-1" d="M49,127.56H0v-8H49Z"/><path class="cls-1" d="M48.69,127.56V0h8V127.56Z"/><path class="cls-1" d="M20,68.15c0,6.2,0,12.4,0,18.6,0,.68.15.9.82.86,1.07-.06,2.14,0,3.21,0,.41,0,.56.12.55.56q0,3.5,0,7c0,.42-.1.58-.53.58l-18.13,0c-1.63,0-3.26,0-4.89,0-.53,0-.75-.1-.74-.72q0-3.36,0-6.72c0-.58.2-.7.7-.69,1.42,0,2.83,0,4.25,0,.47,0,.65-.12.65-.65q0-14.53,0-29.07c0-.5-.13-.67-.62-.66-1.37,0-2.73,0-4.09,0-.46,0-.58-.13-.58-.6,0-2.46,0-4.93,0-7.39,0-.44.13-.55.55-.55q9.14,0,18.28,0c.66,0,.58.36.58.78Z"/><path class="cls-1" d="M12.67,30.69a7,7,0,0,1,5.93,2.74C21.31,37.06,20.13,43,15,44.37a8,8,0,0,1-7.17-1.06c-2.42-1.76-3.32-4.75-2.31-8a6.68,6.68,0,0,1,5.93-4.52C11.87,30.72,12.27,30.71,12.67,30.69Z"/></svg>