<svg  xmlns="http://www.w3.org/2000/svg" viewBox="0 0 147.4 147.4"><path fill="#ebc650" d="M130,82.56q-8.23,23.32-16.42,46.66c-.38,1.08-.73,1.33-1.86.92-11.38-4.07-22.79-8.06-34.18-12.11-1.06-.38-1.52-.39-2,.88-.81,2.22-.5,4.37-.15,6.56.42,2.72,1,5.43.41,8.19-1.63,7.28-8.3,14.56-18.6,12.9-6.27-1-11.2-4.15-13.86-10.18-2.22-5-1.65-13.2,3.68-17.91,1.2-1.06,2.32-2.2,3.55-3.22a11.56,11.56,0,0,0,3-4.93c.18-.44.11-.65-.31-.8l-1-.36L18.5,97.23c-1.66-.59-1.66-.59-1.05-2.3q6-17,12-33.94c.4-1.12.3-1.46-1-1.89-2.37-.83-4.64-.46-7-.08a24.24,24.24,0,0,1-6.74.51,16.35,16.35,0,0,1-13.9-19C2,34.93,4.64,30.36,9.78,27.49S23.59,25.16,28,29.68q2.19,2.24,4.28,4.56A11.75,11.75,0,0,0,36.52,37c1,.45,1.34.13,1.68-.83,2.87-8.26,5.8-16.52,8.72-24.77,1.16-3.31,2.36-6.61,3.48-9.94.28-.83.62-1,1.44-.67Q69.36,7,86.92,13.12c.85.3.88.62.65,1.43-.7,2.39-2.35,4-4.11,5.6-2,1.78-4,3.48-5.36,5.86a16.23,16.23,0,0,0,6.12,21.78c4.85,2.76,10,3.58,15.36,1.67C105.41,47.39,111,40,109.76,32.63c-.29-1.8-.48-3.62-.81-5.4-.34-1.94.34-3.68.83-5.47.12-.46.37-.43.68-.32l.76.26q17.22,6.07,34.45,12.12c1.08.38,1.32.71.91,1.85Q138.24,59.09,130,82.56Z"/></svg>