<svg id="Слой_1" data-name="Слой 1" xmlns="http://www.w3.org/2000/svg" viewBox="0 0 68.03 17.01"><defs><style>.cls-1{fill:#19283a;}</style></defs><path class="cls-1" d="M14.44,16.33a3.86,3.86,0,0,1-.68,0c-3.64-.1-5.89-4.26-8.49-9.07C3.37,3.71.65,3.85.53,3.86L.25.72c.2,0,4.87-.41,7.79,5,2.06,3.82,4,7.43,5.83,7.43l.4,0c.05,0,2.34.37,4.51-3.42l.62-1.1C21.81,4.42,23.9.75,27.3.71c.77,0,4.95-.06,7.69,5,1.41,2.6,4,7.44,5.83,7.44l.31,0c.08,0,2.61.31,4.59-3.37C48.32,5,50.57.79,54.21.71c.91-.1,4.91-.22,7.74,5l.08.15c2,3.75,4,7.29,5.75,7.29v3.14c-3.66,0-5.91-4.13-8.51-8.93l-.08-.14c-2-3.69-4.5-3.39-4.61-3.38l-.26,0c-1.82,0-3.86,3.77-5.83,7.43-2.81,5.2-6.85,5.08-7.74,5-3.38-.08-5.76-4-8.52-9.08-1.92-3.53-4.6-3.36-4.72-3.35h-.15C25.75,3.86,24,7,22.14,10.22l-.63,1.1C19,15.72,15.94,16.33,14.44,16.33Z"/></svg>