<svg id="Слой_1" data-name="Слой 1" xmlns="http://www.w3.org/2000/svg" viewBox="0 0 476.22 9.92"><defs><style>.cls-1{fill:#ebc650;}</style></defs><path class="cls-1" d="M475.52,3.28l0-.1C473.67-.12,471.13,0,470.56,0c-2.31.05-3.73,2.7-5.38,5.76-1.26,2.33-2.86,2.14-2.91,2.13h-.11c-1.13,0-2.36-2.25-3.65-4.62l-.05-.1C456.71,0,454.26,0,453.61,0h-.22a2.7,2.7,0,0,0-.41.06c-1.86.37-3.09,2.51-4.49,5l-.39.69a4.07,4.07,0,0,1-2.26,2.11,1.51,1.51,0,0,1-.58,0h-.11c-1.13,0-2.35-2.25-3.65-4.62l-.05-.1C439.7,0,437.26,0,436.6,0h-.25l-.38,0c-1.85.37-3.09,2.51-4.49,5l-.39.69a4.09,4.09,0,0,1-2.25,2.11,1.56,1.56,0,0,1-.59,0h-.11c-1.13,0-2.35-2.25-3.64-4.62l-.06-.1C422.69,0,420.25,0,419.59,0h-.25l-.38,0c-1.85.37-3.08,2.51-4.48,5l-.4.69a4.09,4.09,0,0,1-2.25,2.11,1.56,1.56,0,0,1-.59,0h-.11c-1.13,0-2.35-2.25-3.64-4.62l-.05-.1C405.69,0,403.24,0,402.58,0h-.25l-.38,0c-1.85.37-3.08,2.51-4.48,5l-.4.69a4,4,0,0,1-2.25,2.11,1.56,1.56,0,0,1-.59,0h-.1c-1.14,0-2.36-2.25-3.65-4.62l-.05-.1C388.68,0,386.23,0,385.58,0h-.26l-.37,0c-1.86.37-3.09,2.51-4.49,5l-.4.69a4,4,0,0,1-2.25,2.11,1.51,1.51,0,0,1-.58,0h-.11c-1.13,0-2.36-2.25-3.65-4.62l-.05-.1C371.67,0,369.22,0,368.57,0h-.25l-.38,0c-1.86.37-3.09,2.51-4.49,5l-.39.69a4.07,4.07,0,0,1-2.26,2.11,1.51,1.51,0,0,1-.58,0h-.11c-1.13,0-2.35-2.25-3.65-4.62l0-.1C354.66,0,352.22,0,351.56,0h-.25l-.38,0c-1.85.37-3.09,2.51-4.49,5l-.39.69a4.09,4.09,0,0,1-2.25,2.11,1.56,1.56,0,0,1-.59,0h-.11c-1.13,0-2.35-2.25-3.64-4.62l0-.1C337.65,0,335.21,0,334.55,0h-.25l-.38,0c-1.85.37-3.08,2.51-4.48,5l-.4.69a4,4,0,0,1-2.25,2.11,1.56,1.56,0,0,1-.59,0h-.11c-1.13,0-2.35-2.25-3.64-4.62l-.05-.1C320.65,0,318.2,0,317.55,0h-.26l-.38,0c-1.85.37-3.08,2.51-4.48,5l-.4.69a4,4,0,0,1-2.25,2.11,1.56,1.56,0,0,1-.59,0h-.1c-1.14,0-2.36-2.25-3.65-4.62l-.05-.1C303.64,0,301.19,0,300.54,0h-.26l-.37,0c-1.86.37-3.09,2.51-4.49,5l-.39.69a4.07,4.07,0,0,1-2.26,2.11,1.51,1.51,0,0,1-.58,0h-.11c-1.13,0-2.35-2.25-3.65-4.62l-.05-.1C286.63,0,284.18,0,283.53,0h-.25l-.38,0c-1.85.37-3.09,2.51-4.49,5l-.39.69a4.07,4.07,0,0,1-2.26,2.11,1.51,1.51,0,0,1-.58,0h-.11c-1.13,0-2.35-2.25-3.65-4.62l-.05-.1C269.62,0,267.18,0,266.52,0h-.25l-.38,0c-1.85.37-3.09,2.51-4.48,5l-.4.69a4.09,4.09,0,0,1-2.25,2.11,1.56,1.56,0,0,1-.59,0h-.11c-1.13,0-2.35-2.25-3.64-4.62l0-.1C252.62,0,250.17,0,249.51,0h-.25l-.38,0c-1.85.37-3.08,2.51-4.48,5l-.4.69a4,4,0,0,1-2.25,2.11,1.56,1.56,0,0,1-.59,0h-.1c-1.14,0-2.36-2.25-3.65-4.62l0-.1C235.61,0,233.16,0,232.51,0h-.26l-.37,0c-1.86.37-3.09,2.51-4.49,5l-.4.69a4,4,0,0,1-2.25,2.11,1.51,1.51,0,0,1-.58,0h-.11c-1.14,0-2.36-2.25-3.65-4.62l-.05-.1C218.6,0,216.15,0,215.5,0h-.26l-.37,0c-1.86.37-3.09,2.51-4.49,5l-.39.69a4.07,4.07,0,0,1-2.26,2.11,1.51,1.51,0,0,1-.58,0H207c-1.13,0-2.35-2.25-3.65-4.62l0-.1C201.59,0,199.15,0,198.49,0h-.25l-.38,0c-1.85.37-3.09,2.51-4.49,5l-.39.69a4.09,4.09,0,0,1-2.25,2.11,1.56,1.56,0,0,1-.59,0H190c-1.13,0-2.35-2.25-3.65-4.62l0-.1C184.58,0,182.14,0,181.48,0h-.25l-.38,0c-1.85.37-3.08,2.51-4.48,5l-.4.69a4.09,4.09,0,0,1-2.25,2.11,1.56,1.56,0,0,1-.59,0H173c-1.13,0-2.35-2.25-3.64-4.62l0-.1C167.58,0,165.13,0,164.47,0h-.25l-.38,0c-1.85.37-3.08,2.51-4.48,5l-.4.69a4,4,0,0,1-2.25,2.11,1.56,1.56,0,0,1-.59,0H156c-1.14,0-2.36-2.25-3.65-4.62l-.05-.1C150.57,0,148.12,0,147.47,0h-.26l-.37,0c-1.86.37-3.09,2.51-4.49,5l-.4.69a4,4,0,0,1-2.25,2.11,1.51,1.51,0,0,1-.58,0H139c-1.13,0-2.36-2.25-3.65-4.62l-.05-.1C133.56,0,131.11,0,130.46,0h-.25l-.38,0c-1.86.37-3.09,2.51-4.49,5l-.39.69a4.07,4.07,0,0,1-2.26,2.11,1.51,1.51,0,0,1-.58,0H122c-1.13,0-2.35-2.25-3.65-4.62l0-.1C116.55,0,114.11,0,113.45,0h-.25l-.38,0c-1.85.37-3.09,2.51-4.49,5l-.39.69a4.09,4.09,0,0,1-2.25,2.11,1.56,1.56,0,0,1-.59,0H105c-1.13,0-2.35-2.25-3.64-4.62l-.06-.1C99.54,0,97.1,0,96.44,0h-.25l-.38,0c-1.85.37-3.08,2.51-4.48,5l-.4.69a4.09,4.09,0,0,1-2.25,2.11,1.56,1.56,0,0,1-.59,0H88c-1.13,0-2.35-2.25-3.64-4.62l0-.1C82.54,0,80.09,0,79.44,0h-.26l-.38,0c-1.85.37-3.08,2.51-4.48,5l-.4.69a4,4,0,0,1-2.25,2.11,1.56,1.56,0,0,1-.59,0H71c-1.14,0-2.36-2.25-3.65-4.62l0-.1C65.53,0,63.08,0,62.43,0h-.26l-.37,0c-1.86.37-3.09,2.51-4.49,5l-.39.69a4.07,4.07,0,0,1-2.26,2.11,1.51,1.51,0,0,1-.58,0H54c-1.13,0-2.35-2.25-3.65-4.62l0-.1C48.52,0,46.07,0,45.42,0h-.25l-.38,0c-1.85.37-3.09,2.51-4.49,5l-.39.69a4.07,4.07,0,0,1-2.26,2.11,1.51,1.51,0,0,1-.58,0H37c-1.13,0-2.35-2.25-3.65-4.62l-.05-.1C31.51,0,29.07,0,28.41,0h-.25l-.38,0c-1.85.37-3.09,2.51-4.48,5l-.4.69a4.09,4.09,0,0,1-2.25,2.11,1.56,1.56,0,0,1-.59,0H20c-1.13,0-2.35-2.25-3.64-4.62l0-.1C14.51,0,12.06,0,11.4,0h-.25l-.38,0c-1.85.37-3.08,2.51-4.48,5l-.4.69A4,4,0,0,1,3.64,7.86a1.56,1.56,0,0,1-.59,0H3c-.56,0-1.13-.54-1.72-1.36C1,6.16.68,5.72.4,5.25V8.81A3.43,3.43,0,0,0,2.71,9.89a2.31,2.31,0,0,0,.43,0,4.12,4.12,0,0,0,.65-.06l.1,0,.17,0A5.52,5.52,0,0,0,7.72,6.72C9,4.41,10.26,2,11.42,2h0a3.5,3.5,0,0,1,2.91,2.13C16,7.19,17.41,9.83,19.71,9.89a2.44,2.44,0,0,0,.44,0,4.23,4.23,0,0,0,.65-.06l.1,0,.17,0a5.52,5.52,0,0,0,3.66-3.08C26,4.41,27.27,2,28.43,2h0a3.5,3.5,0,0,1,2.91,2.13C33,7.19,34.42,9.83,36.72,9.89a2.39,2.39,0,0,0,.43,0,4.24,4.24,0,0,0,.66-.06l.1,0,.16,0a5.54,5.54,0,0,0,3.67-3.08C43,4.41,44.28,2,45.43,2h0a3.5,3.5,0,0,1,2.92,2.13C50,7.19,51.42,9.83,53.73,9.89a2.39,2.39,0,0,0,.43,0,4.35,4.35,0,0,0,.66-.06l.1,0,.16,0a5.56,5.56,0,0,0,3.67-3.08C60,4.41,61.28,2,62.44,2h0a3.5,3.5,0,0,1,2.92,2.13C67,7.19,68.43,9.83,70.74,9.89a2.39,2.39,0,0,0,.43,0,4.12,4.12,0,0,0,.65-.06l.1,0,.17,0a5.52,5.52,0,0,0,3.66-3.08C77,4.41,78.29,2,79.45,2h0a3.51,3.51,0,0,1,2.92,2.13C84,7.19,85.44,9.83,87.75,9.89a2.31,2.31,0,0,0,.43,0,4.12,4.12,0,0,0,.65-.06l.1,0,.17,0a5.52,5.52,0,0,0,3.66-3.08C94,4.41,95.3,2,96.46,2h0a3.5,3.5,0,0,1,2.91,2.13c1.65,3.05,3.08,5.69,5.38,5.75a2.39,2.39,0,0,0,.43,0,4.24,4.24,0,0,0,.66-.06l.1,0,.17,0a5.54,5.54,0,0,0,3.66-3.08C111,4.41,112.31,2,113.47,2h0a3.5,3.5,0,0,1,2.91,2.13c1.65,3.05,3.08,5.69,5.38,5.75a2.39,2.39,0,0,0,.43,0,4.24,4.24,0,0,0,.66-.06l.1,0,.16,0a5.54,5.54,0,0,0,3.67-3.08C128,4.41,129.32,2,130.47,2h0a3.5,3.5,0,0,1,2.92,2.13c1.65,3.05,3.07,5.69,5.38,5.75a2.39,2.39,0,0,0,.43,0,4.35,4.35,0,0,0,.66-.06l.09,0,.17,0a5.56,5.56,0,0,0,3.67-3.08C145,4.41,146.32,2,147.48,2h0a3.5,3.5,0,0,1,2.92,2.13c1.64,3.05,3.07,5.69,5.38,5.75a2.31,2.31,0,0,0,.43,0,4.12,4.12,0,0,0,.65-.06l.1,0,.17,0a5.52,5.52,0,0,0,3.66-3.08C162,4.41,163.33,2,164.49,2h0a3.49,3.49,0,0,1,2.91,2.13c1.65,3.05,3.08,5.69,5.39,5.75a2.31,2.31,0,0,0,.43,0,4.12,4.12,0,0,0,.65-.06l.1,0,.17,0a5.52,5.52,0,0,0,3.66-3.08C179.05,4.41,180.34,2,181.5,2h0a3.5,3.5,0,0,1,2.91,2.13c1.65,3.05,3.08,5.69,5.38,5.75a2.39,2.39,0,0,0,.43,0,4.24,4.24,0,0,0,.66-.06l.1,0,.16,0a5.54,5.54,0,0,0,3.67-3.08C196.06,4.41,197.35,2,198.5,2h0a3.5,3.5,0,0,1,2.92,2.13c1.65,3.05,3.07,5.69,5.38,5.75a2.39,2.39,0,0,0,.43,0,4.35,4.35,0,0,0,.66-.06l.1,0,.16,0a5.54,5.54,0,0,0,3.67-3.08C213.07,4.41,214.36,2,215.51,2h0a3.5,3.5,0,0,1,2.92,2.13c1.65,3.05,3.07,5.69,5.38,5.75a2.39,2.39,0,0,0,.43,0,4.35,4.35,0,0,0,.66-.06l.09,0,.17,0a5.52,5.52,0,0,0,3.66-3.08c1.25-2.31,2.54-4.71,3.7-4.71h0a3.51,3.51,0,0,1,2.92,2.13c1.64,3.05,3.07,5.69,5.38,5.75a2.31,2.31,0,0,0,.43,0,4.12,4.12,0,0,0,.65-.06l.1,0,.17,0a5.52,5.52,0,0,0,3.66-3.08c1.25-2.31,2.54-4.71,3.7-4.71h0a3.5,3.5,0,0,1,2.91,2.13c1.65,3.05,3.08,5.69,5.38,5.75a2.44,2.44,0,0,0,.44,0,4.12,4.12,0,0,0,.65-.06l.1,0,.17,0a5.52,5.52,0,0,0,3.66-3.08c1.25-2.31,2.54-4.71,3.7-4.71h0a3.5,3.5,0,0,1,2.91,2.13c1.65,3.05,3.08,5.69,5.38,5.75a2.39,2.39,0,0,0,.43,0,4.24,4.24,0,0,0,.66-.06l.1,0,.16,0a5.54,5.54,0,0,0,3.67-3.08C281.1,4.41,282.39,2,283.54,2h0a3.5,3.5,0,0,1,2.92,2.13c1.65,3.05,3.07,5.69,5.38,5.75a2.39,2.39,0,0,0,.43,0,4.35,4.35,0,0,0,.66-.06l.1,0,.16,0a5.56,5.56,0,0,0,3.67-3.08C298.1,4.41,299.4,2,300.55,2h0a3.5,3.5,0,0,1,2.92,2.13c1.65,3.05,3.07,5.69,5.38,5.75a2.39,2.39,0,0,0,.43,0,4.12,4.12,0,0,0,.65-.06l.1,0,.17,0a5.52,5.52,0,0,0,3.66-3.08C315.11,4.41,316.4,2,317.56,2h0a3.51,3.51,0,0,1,2.92,2.13c1.64,3.05,3.07,5.69,5.38,5.75a2.31,2.31,0,0,0,.43,0,4.12,4.12,0,0,0,.65-.06l.1,0,.17,0a5.52,5.52,0,0,0,3.66-3.08c1.25-2.31,2.54-4.71,3.7-4.71h0a3.5,3.5,0,0,1,2.91,2.13c1.65,3.05,3.08,5.69,5.38,5.75a2.44,2.44,0,0,0,.44,0,4.23,4.23,0,0,0,.65-.06l.1,0,.17,0a5.54,5.54,0,0,0,3.66-3.08c1.25-2.31,2.54-4.71,3.7-4.71h0a3.5,3.5,0,0,1,2.91,2.13c1.65,3.05,3.08,5.69,5.38,5.75a2.39,2.39,0,0,0,.43,0,4.24,4.24,0,0,0,.66-.06l.1,0,.16,0a5.54,5.54,0,0,0,3.67-3.08C366.14,4.41,367.43,2,368.58,2h0a3.5,3.5,0,0,1,2.92,2.13c1.65,3.05,3.07,5.69,5.38,5.75a2.39,2.39,0,0,0,.43,0,4.35,4.35,0,0,0,.66-.06l.09,0,.17,0a5.56,5.56,0,0,0,3.67-3.08C383.14,4.41,384.43,2,385.59,2h0a3.5,3.5,0,0,1,2.92,2.13c1.65,3.05,3.07,5.69,5.38,5.75a2.31,2.31,0,0,0,.43,0,4.12,4.12,0,0,0,.65-.06l.1,0,.17,0a5.52,5.52,0,0,0,3.66-3.08C400.15,4.41,401.44,2,402.6,2h0a3.49,3.49,0,0,1,2.91,2.13c1.65,3.05,3.08,5.69,5.39,5.75a2.31,2.31,0,0,0,.43,0,4.12,4.12,0,0,0,.65-.06l.1,0,.17,0a5.52,5.52,0,0,0,3.66-3.08c1.25-2.31,2.54-4.71,3.7-4.71h0a3.5,3.5,0,0,1,2.91,2.13c1.65,3.05,3.08,5.69,5.38,5.75a2.39,2.39,0,0,0,.43,0,4.24,4.24,0,0,0,.66-.06l.1,0,.16,0a5.54,5.54,0,0,0,3.67-3.08C434.17,4.41,435.46,2,436.61,2h0a3.5,3.5,0,0,1,2.91,2.13c1.65,3.05,3.08,5.69,5.38,5.75a2.39,2.39,0,0,0,.43,0,4.35,4.35,0,0,0,.66-.06l.1,0,.16,0a5.54,5.54,0,0,0,3.67-3.08C451.18,4.41,452.47,2,453.62,2h.07c.27,0,1.8.05,2.93,2.13,1.75,3.23,3.26,5.7,5.41,5.75.56.06,3.12.14,4.9-3.17,1.25-2.31,2.54-4.71,3.7-4.71h.16c.07,0,1.65-.2,2.92,2.14l.06.09a30.93,30.93,0,0,0,2.15,3.59V4Z"/></svg>