<svg width="50" height="115" xmlns="http://www.w3.org/2000/svg" viewBox="0 0 48.19 110.55"><defs><style>.cls-1{fill:#fff;stroke:#19283a;stroke-linecap:round;stroke-miterlimit:10;stroke-width:2px}</style></defs><path class="cls-1" d="M1.47 1.56l13.75 13.67M1.47 15.23L15.22 1.56M32.97 1.56l13.75 13.67M32.97 15.23L46.72 1.56M1.47 32.81l13.75 13.68M1.47 46.49l13.75-13.68M32.97 32.81l13.75 13.68M32.97 46.49l13.75-13.68M1.47 64.07l13.75 13.67M1.47 77.74l13.75-13.67M32.97 64.07l13.75 13.67M32.97 77.74l13.75-13.67M1.47 95.32L15.22 109M1.47 109l13.75-13.68M32.97 95.32L46.72 109M32.97 109l13.75-13.68"/></svg>